<svg width="52" height="52" viewBox="0 0 52 52" fill="none" xmlns="http://www.w3.org/2000/svg">
<path d="M6.81616 43.6094H14.0662C14.3065 43.6094 14.537 43.5139 14.707 43.3439C14.8769 43.174 14.9724 42.9435 14.9724 42.7031C14.9724 42.4628 14.8769 42.2323 14.707 42.0623C14.537 41.8924 14.3065 41.7969 14.0662 41.7969H6.81616C6.57581 41.7969 6.3453 41.8924 6.17535 42.0623C6.00539 42.2323 5.90991 42.4628 5.90991 42.7031C5.90991 42.9435 6.00539 43.174 6.17535 43.3439C6.3453 43.5139 6.57581 43.6094 6.81616 43.6094Z" fill="white"/>
<path d="M6.81616 39.0781H14.0662C14.3065 39.0781 14.537 38.9826 14.707 38.8127C14.8769 38.6427 14.9724 38.4122 14.9724 38.1719C14.9724 37.9315 14.8769 37.701 14.707 37.5311C14.537 37.3611 14.3065 37.2656 14.0662 37.2656H6.81616C6.57581 37.2656 6.3453 37.3611 6.17535 37.5311C6.00539 37.701 5.90991 37.9315 5.90991 38.1719C5.90991 38.4122 6.00539 38.6427 6.17535 38.8127C6.3453 38.9826 6.57581 39.0781 6.81616 39.0781Z" fill="white"/>
<path d="M2.28491 21.8594V20.9531C2.28491 20.7128 2.18943 20.4823 2.01948 20.3123C1.84952 20.1424 1.61901 20.0469 1.37866 20.0469C1.13831 20.0469 0.907802 20.1424 0.737847 20.3123C0.567892 20.4823 0.472412 20.7128 0.472412 20.9531V21.8594C0.472412 22.0997 0.567892 22.3302 0.737847 22.5002C0.907802 22.6701 1.13831 22.7656 1.37866 22.7656C1.61901 22.7656 1.84952 22.6701 2.01948 22.5002C2.18943 22.3302 2.28491 22.0997 2.28491 21.8594Z" fill="white"/>
<path d="M41.2537 49.9531H29.4724V36.3594C29.4724 36.119 29.3769 35.8885 29.207 35.7186C29.037 35.5486 28.8065 35.4531 28.5662 35.4531C28.3258 35.4531 28.0953 35.5486 27.9253 35.7186C27.7554 35.8885 27.6599 36.119 27.6599 36.3594V46.3281H2.28491V25.4844C2.28491 25.244 2.18943 25.0135 2.01948 24.8436C1.84952 24.6736 1.61901 24.5781 1.37866 24.5781C1.13831 24.5781 0.907802 24.6736 0.737847 24.8436C0.567892 25.0135 0.472412 25.244 0.472412 25.4844V47.2344C0.472412 47.4747 0.567892 47.7052 0.737847 47.8752C0.907802 48.0451 1.13831 48.1406 1.37866 48.1406H27.6599V50.8594C27.6599 51.0997 27.7554 51.3302 27.9253 51.5002C28.0953 51.6701 28.3258 51.7656 28.5662 51.7656H41.2537C41.494 51.7656 41.7245 51.6701 41.8945 51.5002C42.0644 51.3302 42.1599 51.0997 42.1599 50.8594C42.1599 50.619 42.0644 50.3885 41.8945 50.2186C41.7245 50.0486 41.494 49.9531 41.2537 49.9531Z" fill="white"/>
<path d="M50.3162 20.9527H42.1599C42.1599 10.2771 42.2324 10.8027 41.9968 10.4674C35.209 0.76148 35.5806 1.01523 34.9099 1.01523H30.3787C30.1383 1.01523 29.9078 1.11071 29.7379 1.28066C29.5679 1.45062 29.4724 1.68113 29.4724 1.92148C29.4724 2.16183 29.5679 2.39234 29.7379 2.5623C29.9078 2.73225 30.1383 2.82773 30.3787 2.82773H34.4387L39.5137 10.0777H26.5906L25.1406 2.82773H26.7537C26.994 2.82773 27.2245 2.73225 27.3945 2.5623C27.5645 2.39234 27.6599 2.16183 27.6599 1.92148C27.6599 1.68113 27.5645 1.45062 27.3945 1.28066C27.2245 1.11071 26.994 1.01523 26.7537 1.01523C6.29962 1.01523 7.37806 0.824917 6.97931 1.40492C0.408998 10.7937 0.472435 10.5309 0.472435 10.984V17.3277C0.472435 17.5681 0.567915 17.7986 0.73787 17.9685C0.907824 18.1385 1.13833 18.234 1.37868 18.234C1.61904 18.234 1.84955 18.1385 2.0195 17.9685C2.18946 17.7986 2.28493 17.5681 2.28493 17.3277V11.8902H15.8787V18.234C15.8787 18.4743 15.9742 18.7048 16.1441 18.8748C16.3141 19.0448 16.5446 19.1402 16.7849 19.1402H25.8474C26.0878 19.1402 26.3183 19.0448 26.4883 18.8748C26.6582 18.7048 26.7537 18.4743 26.7537 18.234V11.8902H40.3474V20.9527H28.5662C28.3258 20.9527 28.0953 21.0482 27.9254 21.2182C27.7554 21.3881 27.6599 21.6186 27.6599 21.859V32.734C27.6599 32.9743 27.7554 33.2048 27.9254 33.3748C28.0953 33.5448 28.3258 33.6402 28.5662 33.6402C28.8065 33.6402 29.037 33.5448 29.207 33.3748C29.377 33.2048 29.4724 32.9743 29.4724 32.734V22.7652H49.4099V49.9527H44.8787C44.6383 49.9527 44.4078 50.0482 44.2379 50.2182C44.0679 50.3881 43.9724 50.6186 43.9724 50.859C43.9724 51.0993 44.0679 51.3298 44.2379 51.4998C44.4078 51.6698 44.6383 51.7652 44.8787 51.7652H50.3162C50.5565 51.7652 50.7871 51.6698 50.957 51.4998C51.127 51.3298 51.2224 51.0993 51.2224 50.859V21.859C51.2224 21.6186 51.127 21.3881 50.957 21.2182C50.7871 21.0482 50.5565 20.9527 50.3162 20.9527ZM8.19369 2.82773H17.4918L16.9843 5.37429C16.9362 5.61465 16.9856 5.86425 17.1216 6.06819C17.2575 6.27214 17.469 6.41372 17.7093 6.46179C17.9497 6.50986 18.1993 6.46048 18.4032 6.32452C18.6072 6.18856 18.7487 5.97714 18.7968 5.73679L19.3406 2.82773H23.2918L24.7418 10.0777H17.8906L18.0537 9.27117C18.1018 9.03082 18.0524 8.78121 17.9164 8.57727C17.7805 8.37332 17.569 8.23174 17.3287 8.18367C17.0883 8.1356 16.8387 8.18498 16.6348 8.32094C16.4308 8.4569 16.2893 8.66832 16.2412 8.90867L16.0418 10.0777H3.11869L8.19369 2.82773ZM24.9412 17.3277H17.6912V11.8902H24.9412V17.3277Z" fill="white"/>
<path d="M32.454 29.7526C32.5383 29.8376 32.6385 29.905 32.7489 29.951C32.8594 29.997 32.9778 30.0207 33.0975 30.0207C33.2171 30.0207 33.3355 29.997 33.446 29.951C33.5564 29.905 33.6566 29.8376 33.7409 29.7526L36.4596 27.0339C36.6303 26.8632 36.7262 26.6318 36.7262 26.3904C36.7262 26.1491 36.6303 25.9176 36.4596 25.747C36.289 25.5763 36.0575 25.4805 35.8162 25.4805C35.5749 25.4805 35.3434 25.5763 35.1728 25.747L33.0975 27.8314L32.8346 27.5595C32.7501 27.475 32.6498 27.408 32.5394 27.3622C32.429 27.3165 32.3107 27.293 32.1912 27.293C32.0717 27.293 31.9534 27.3165 31.843 27.3622C31.7326 27.408 31.6323 27.475 31.5478 27.5595C31.4633 27.644 31.3962 27.7443 31.3505 27.8547C31.3048 27.9651 31.2812 28.0834 31.2812 28.2029C31.2812 28.3224 31.3048 28.4408 31.3505 28.5512C31.3962 28.6616 31.4633 28.7619 31.5478 28.8464L32.454 29.7526Z" fill="white"/>
<path d="M31.5478 34.2839C33.3603 36.0964 32.8528 36.0964 36.4596 32.4714C36.5441 32.3869 36.6112 32.2866 36.6569 32.1762C36.7026 32.0658 36.7262 31.9474 36.7262 31.8279C36.7262 31.7084 36.7026 31.5901 36.6569 31.4797C36.6112 31.3693 36.5441 31.269 36.4596 31.1845C36.3751 31.1 36.2748 31.033 36.1644 30.9872C36.054 30.9415 35.9357 30.918 35.8162 30.918C35.6967 30.918 35.5784 30.9415 35.468 30.9872C35.3576 31.033 35.2573 31.1 35.1728 31.1845L33.0975 33.2689L32.8346 32.997C32.664 32.8263 32.4325 32.7305 32.1912 32.7305C31.9499 32.7305 31.7184 32.8263 31.5478 32.997C31.3771 33.1676 31.2813 33.3991 31.2813 33.6404C31.2812 33.8818 31.3771 34.1132 31.5478 34.2839Z" fill="white"/>
<path d="M31.5478 39.7214C33.3603 41.5339 32.8528 41.5339 36.4596 37.9089C36.6303 37.7382 36.7262 37.5068 36.7262 37.2654C36.7262 37.0241 36.6303 36.7926 36.4596 36.622C36.289 36.4513 36.0575 36.3555 35.8162 36.3555C35.5749 36.3555 35.3434 36.4513 35.1728 36.622L33.0975 38.7064L32.8346 38.4345C32.664 38.2638 32.4325 38.168 32.1912 38.168C31.9499 38.168 31.7184 38.2638 31.5478 38.4345C31.3771 38.6051 31.2812 38.8366 31.2812 39.0779C31.2812 39.3193 31.3771 39.5507 31.5478 39.7214Z" fill="white"/>
<path d="M31.5478 45.1589C33.3603 46.9714 32.8528 46.9714 36.4596 43.3464C36.6303 43.1757 36.7262 42.9443 36.7262 42.7029C36.7262 42.4616 36.6303 42.2301 36.4596 42.0595C36.289 41.8888 36.0575 41.793 35.8162 41.793C35.5749 41.793 35.3434 41.8888 35.1728 42.0595L33.0975 44.1439L32.8346 43.872C32.664 43.7013 32.4325 43.6055 32.1912 43.6055C31.9499 43.6055 31.7184 43.7013 31.5478 43.872C31.3771 44.0426 31.2813 44.2741 31.2813 44.5154C31.2812 44.7568 31.3771 44.9882 31.5478 45.1589Z" fill="white"/>
<path d="M39.4412 29.1094H46.6912C46.9315 29.1094 47.162 29.0139 47.332 28.8439C47.5019 28.674 47.5974 28.4435 47.5974 28.2031C47.5974 27.9628 47.5019 27.7323 47.332 27.5623C47.162 27.3924 46.9315 27.2969 46.6912 27.2969H39.4412C39.2008 27.2969 38.9703 27.3924 38.8003 27.5623C38.6304 27.7323 38.5349 27.9628 38.5349 28.2031C38.5349 28.4435 38.6304 28.674 38.8003 28.8439C38.9703 29.0139 39.2008 29.1094 39.4412 29.1094Z" fill="white"/>
<path d="M39.4412 34.5469H46.6912C46.9315 34.5469 47.162 34.4514 47.332 34.2814C47.5019 34.1115 47.5974 33.881 47.5974 33.6406C47.5974 33.4003 47.5019 33.1698 47.332 32.9998C47.162 32.8299 46.9315 32.7344 46.6912 32.7344H39.4412C39.2008 32.7344 38.9703 32.8299 38.8003 32.9998C38.6304 33.1698 38.5349 33.4003 38.5349 33.6406C38.5349 33.881 38.6304 34.1115 38.8003 34.2814C38.9703 34.4514 39.2008 34.5469 39.4412 34.5469Z" fill="white"/>
<path d="M39.4412 39.9844H46.6912C46.9315 39.9844 47.162 39.8889 47.332 39.7189C47.5019 39.549 47.5974 39.3185 47.5974 39.0781C47.5974 38.8378 47.5019 38.6073 47.332 38.4373C47.162 38.2674 46.9315 38.1719 46.6912 38.1719H39.4412C39.2008 38.1719 38.9703 38.2674 38.8003 38.4373C38.6304 38.6073 38.5349 38.8378 38.5349 39.0781C38.5349 39.3185 38.6304 39.549 38.8003 39.7189C38.9703 39.8889 39.2008 39.9844 39.4412 39.9844Z" fill="white"/>
<path d="M39.4412 45.4219H46.6912C46.9315 45.4219 47.162 45.3264 47.332 45.1564C47.5019 44.9865 47.5974 44.756 47.5974 44.5156C47.5974 44.2753 47.5019 44.0448 47.332 43.8748C47.162 43.7049 46.9315 43.6094 46.6912 43.6094H39.4412C39.2008 43.6094 38.9703 43.7049 38.8003 43.8748C38.6304 44.0448 38.5349 44.2753 38.5349 44.5156C38.5349 44.756 38.6304 44.9865 38.8003 45.1564C38.9703 45.3264 39.2008 45.4219 39.4412 45.4219Z" fill="white"/>
</svg>
