<svg width="39" height="55" viewBox="0 0 39 55" fill="none" xmlns="http://www.w3.org/2000/svg">
<path d="M18.975 54.45C17.435 54.45 16.005 53.46 15.015 51.59C2.805 29.04 2.695 28.82 2.695 28.71C0.935001 25.905 0 22.495 0 19.03C0 8.525 8.525 0 19.03 0C29.535 0 38.06 8.525 38.06 19.03C38.06 22.605 37.07 26.07 35.2 29.04C35.2 29.04 34.54 30.36 22.99 51.59C21.945 53.46 20.57 54.45 18.975 54.45ZM19.03 2.2C9.735 2.2 2.2 9.735 2.2 19.03C2.2 22.11 3.025 25.135 4.675 27.775C5.005 28.49 13.695 44.495 16.995 50.6C18.15 52.745 19.855 52.745 21.065 50.6C25.19 43.01 33 28.545 33.275 28.05C34.98 25.3 35.86 22.22 35.86 19.085C35.805 9.735 28.27 2.2 19.03 2.2Z" fill="white"/>
<path d="M19.03 30.4693C13.2 30.4693 8.52499 25.7393 8.52499 19.9643C8.52499 14.1893 13.2 9.4043 19.03 9.4043C24.86 9.4043 29.535 14.1343 29.535 19.9093C29.535 25.6843 24.805 30.4693 19.03 30.4693ZM19.03 11.6043C14.465 11.6043 10.725 15.3443 10.725 19.9093C10.725 24.4743 14.465 28.2143 19.03 28.2143C23.595 28.2143 27.335 24.4743 27.335 19.9093C27.335 15.3443 23.595 11.6043 19.03 11.6043Z" fill="white"/>
</svg>
